<svg data-v-423bf9ae="" xmlns="http://www.w3.org/2000/svg" viewBox="0 0 309 90" class="iconLeft"><!----><!----><!----><g data-v-423bf9ae="" id="b1c64225-ee84-4454-9580-1cca775d7fcf" fill="black" transform="matrix(5.305699348449707,0,0,5.305699348449707,108.13471221923828,-2.2435221672058105)"><path d="M2.37 11.49L2.37 11.49L2.37 11.49Q2.37 12.71 3.40 12.71L3.40 12.71L3.40 12.71Q4.54 12.71 4.93 11.93L4.93 11.93L4.93 11.93Q5.07 11.65 5.07 11.21L5.07 11.21L5.07 11.21Q5.07 10.77 4.86 10.39L4.86 10.39L4.86 10.39Q4.51 9.79 3.65 9.06L3.65 9.06L3.65 9.06Q2.24 7.85 2.24 6.56L2.24 6.56L2.24 6.56Q2.24 5.26 3.05 4.56L3.05 4.56L3.05 4.56Q3.86 3.86 4.91 3.86L4.91 3.86L4.91 3.86Q5.96 3.86 6.58 4.40L6.58 4.40L6.58 4.40Q7.20 4.93 7.20 5.99L7.20 5.99L7.20 5.99Q7.20 6.69 6.73 7.21L6.73 7.21L6.73 7.21Q6.26 7.73 5.49 7.85L5.49 7.85L5.49 7.85Q5.84 8.15 6.19 8.46L6.19 8.46L6.19 8.46Q6.52 8.76 6.80 9.13L6.80 9.13L6.80 9.13Q7.42 9.95 7.42 11.10L7.42 11.10L7.42 11.10Q7.42 11.90 7.05 12.54L7.05 12.54L7.05 12.54Q6.68 13.19 6.08 13.63L6.08 13.63L6.08 13.63Q5.49 14.07 4.75 14.31L4.75 14.31L4.75 14.31Q4.00 14.55 3.36 14.55L3.36 14.55L3.36 14.55Q1.99 14.55 1.23 13.92L1.23 13.92L1.23 13.92Q0.35 13.20 0.35 11.86L0.35 11.86L0.35 11.86Q0.35 10.98 0.92 10.15L0.92 10.15L0.92 10.15Q1.50 9.32 2.14 9.32L2.14 9.32L2.14 9.32Q2.65 9.32 2.65 9.63L2.65 9.63L2.65 9.63Q2.65 10.08 2.51 10.52L2.51 10.52L2.51 10.52Q2.37 10.96 2.37 11.49ZM5.08 7.52L5.08 7.52L5.08 7.52Q5.88 6.72 5.88 5.85L5.88 5.85L5.88 5.85Q5.88 5.59 5.60 5.40L5.60 5.40L5.60 5.40Q5.29 5.24 4.96 5.24L4.96 5.24L4.96 5.24Q4.20 5.24 3.86 5.73L3.86 5.73L3.86 5.73Q4.03 6.33 4.36 6.75L4.36 6.75L4.36 6.75Q4.69 7.17 5.08 7.52ZM17.00 11.14L17.00 11.14L17.00 11.14Q17.25 11.14 17.25 11.79L17.25 11.79L17.25 11.79Q17.25 12.14 16.95 12.63L16.95 12.63L16.95 12.63Q16.66 13.13 16.19 13.54L16.19 13.54L16.19 13.54Q15.72 13.96 15.15 14.22L15.15 14.22L15.15 14.22Q14.57 14.49 14.03 14.49L14.03 14.49L14.03 14.49Q13.29 14.49 13.03 13.19L13.03 13.19L13.03 13.19Q12.67 13.79 12.08 14.18L12.08 14.18L12.08 14.18Q11.49 14.56 10.51 14.56L10.51 14.56L10.51 14.56Q9.52 14.56 8.92 13.94L8.92 13.94L8.92 13.94Q8.32 13.33 8.33 12.45L8.33 12.45L8.33 12.45Q8.33 10.07 9.91 8.69L9.91 8.69L9.91 8.69Q10.58 8.12 11.17 7.94L11.17 7.94L11.17 7.94Q11.75 7.76 12.39 7.76L12.39 7.76L12.39 7.76Q13.03 7.76 13.44 7.98L13.44 7.98L13.44 7.98Q13.64 7.57 13.89 7.57L13.89 7.57L13.89 7.57Q14.38 7.57 14.82 8.00L14.82 8.00L14.82 8.00Q15.26 8.43 15.26 8.81L15.26 8.81L15.26 8.81Q15.06 9.27 14.69 9.91L14.69 9.91L14.69 9.91Q14.57 10.56 14.57 11.72L14.57 11.72L14.57 11.72Q14.57 12.88 14.87 12.88L14.87 12.88L14.87 12.88Q15.23 12.88 16.63 11.42L16.63 11.42L16.63 11.42Q16.88 11.14 17.00 11.14ZM10.39 11.98L10.39 11.98L10.39 11.98Q10.39 13.06 11.19 13.06L11.19 13.06L11.19 13.06Q12.04 13.05 12.60 12.15L12.60 12.15L12.60 12.15Q12.80 11.84 12.92 11.40L12.92 11.40L12.92 11.40Q12.92 9.83 13.20 8.71L13.20 8.71L13.20 8.71Q12.07 8.93 11.23 9.80L11.23 9.80L11.23 9.80Q10.39 10.67 10.39 11.98ZM18.76 8.29L18.76 8.29L18.76 8.29Q18.76 9.23 18.42 10.42L18.42 10.42L18.42 10.42Q18.45 10.86 18.45 11.28L18.45 11.28L18.45 11.28Q18.45 11.70 18.51 12.01L18.51 12.01L18.51 12.01Q18.72 12.57 19.04 12.70L19.04 12.70L19.04 12.70Q19.32 12.70 19.66 12.21L19.66 12.21L19.66 12.21Q19.99 11.73 20.34 11.06L20.34 11.06L20.34 11.06Q20.17 10.42 20.17 9.84L20.17 9.84L20.17 9.84Q20.17 8.83 20.48 8.37L20.48 8.37L20.48 8.37Q20.86 7.78 21.63 7.78L21.63 7.78L21.63 7.78Q22.40 7.78 22.65 8.37L22.65 8.37L22.65 8.37Q22.75 8.60 22.75 8.88L22.75 8.88L22.75 8.88Q22.75 9.38 22.50 9.91L22.50 9.91L22.50 9.91Q22.25 10.43 21.69 11.28L21.69 11.28L21.69 11.28Q21.94 12.03 22.44 12.03L22.44 12.03L22.44 12.03Q23.06 12.01 23.51 11.59L23.51 11.59L23.51 11.59Q23.67 11.42 23.79 11.30L23.79 11.30L23.79 11.30Q23.91 11.17 24.04 11.17L24.04 11.17L24.04 11.17Q24.23 11.17 24.23 11.63L24.23 11.63L24.23 11.63Q24.23 12.50 23.74 12.90L23.74 12.90L23.74 12.90Q23.24 13.30 22.48 13.30L22.48 13.30L22.48 13.30Q21.49 13.30 20.90 12.43L20.90 12.43L20.90 12.43Q19.26 14.56 18.16 14.56L18.16 14.56L18.16 14.56Q17.72 14.56 17.30 13.33L17.30 13.33L17.30 13.33Q16.88 12.10 16.66 10.00L16.66 10.00L16.66 10.00Q16.49 8.67 16.86 8.09L16.86 8.09L16.86 8.09Q17.16 7.64 18.06 7.64L18.06 7.64L18.06 7.64Q18.40 7.64 18.58 7.85L18.58 7.85L18.58 7.85Q18.76 8.05 18.76 8.29ZM25.28 14.49L25.28 14.49L25.28 14.49Q23.88 14.49 23.88 11.87L23.88 11.87L23.88 11.87Q23.88 10.44 24.23 9.28L24.23 9.28L24.23 9.28Q24.78 7.49 25.47 7.49L25.47 7.49L25.47 7.49Q25.87 7.49 26.11 8.04L26.11 8.04L26.11 8.04Q26.31 8.46 26.29 8.86L26.29 8.86L26.29 8.86Q26.29 9.42 25.96 10.84L25.96 10.84L25.96 10.84Q25.63 12.07 25.63 12.36L25.63 12.36L25.63 12.36Q25.63 12.66 25.78 12.77L25.78 12.77L25.78 12.77Q25.93 12.88 26.13 12.88L26.13 12.88L26.13 12.88Q26.33 12.88 26.64 12.61L26.64 12.61L26.64 12.61Q26.95 12.35 27.26 12.03L27.26 12.03L27.26 12.03Q27.57 11.72 27.83 11.45L27.83 11.45L27.83 11.45Q28.08 11.19 28.18 11.19L28.18 11.19L28.18 11.19Q28.38 11.19 28.38 11.66L28.38 11.66L28.38 11.66Q28.38 12.64 27.39 13.57L27.39 13.57L27.39 13.57Q26.40 14.50 25.28 14.49ZM25.86 6.36L25.86 6.36L25.86 6.36Q25.48 5.80 25.48 5.15L25.48 5.15L25.48 5.15Q25.48 4.51 25.68 4.08L25.68 4.08L25.68 4.08Q25.89 3.65 26.07 3.45L26.07 3.45L26.07 3.45Q26.25 3.25 26.49 3.25L26.49 3.25L26.49 3.25Q26.88 3.25 27.20 3.83L27.20 3.83L27.20 3.83Q27.52 4.41 27.52 4.80L27.52 4.80L27.52 4.80Q27.52 5.53 27.01 5.94L27.01 5.94L27.01 5.94Q26.50 6.36 25.86 6.36ZM33.24 11.14L33.24 11.14L33.24 11.14Q33.49 11.14 33.49 11.57L33.49 11.57L33.49 11.57Q33.49 12.00 33.27 12.49L33.27 12.49L33.27 12.49Q33.05 12.98 32.61 13.43L32.61 13.43L32.61 13.43Q32.17 13.89 31.49 14.21L31.49 14.21L31.49 14.21Q30.80 14.53 29.87 14.53L29.87 14.53L29.87 14.53Q28.94 14.53 28.24 13.98L28.24 13.98L28.24 13.98Q27.54 13.43 27.54 12.38L27.54 12.38L27.54 12.38Q27.54 11.34 27.87 10.49L27.87 10.49L27.87 10.49Q28.20 9.65 28.74 9.03L28.74 9.03L28.74 9.03Q29.27 8.41 29.96 8.07L29.96 8.07L29.96 8.07Q30.65 7.73 31.26 7.73L31.26 7.73L31.26 7.73Q32.34 7.73 32.34 8.58L32.34 8.58L32.34 8.58Q32.34 9.07 32.14 9.37L32.14 9.37L32.14 9.37Q31.93 9.66 31.72 9.66L31.72 9.66L31.72 9.66Q31.44 9.66 31.23 9.46L31.23 9.46L31.23 9.46Q31.02 9.27 30.77 9.26L30.77 9.26L30.77 9.26Q30.52 9.25 30.29 9.51L30.29 9.51L30.29 9.51Q30.06 9.76 29.90 10.15L29.90 10.15L29.90 10.15Q29.60 10.93 29.60 11.98L29.60 11.98L29.60 11.98Q29.61 12.49 30.06 12.74L30.06 12.74L30.06 12.74Q30.37 12.91 30.79 12.92L30.79 12.92L30.79 12.92Q31.21 12.92 31.59 12.64L31.59 12.64L31.59 12.64Q31.98 12.36 32.30 12.03L32.30 12.03L32.30 12.03Q32.62 11.70 32.87 11.42L32.87 11.42L32.87 11.42Q33.11 11.14 33.24 11.14ZM35.98 7.67L35.98 7.67L35.98 7.67Q36.92 7.66 37.38 8.02L37.38 8.02L37.38 8.02Q37.84 8.37 37.84 9.04L37.84 9.04L37.84 9.04Q37.84 9.70 37.44 10.17L37.44 10.17L37.44 10.17Q37.04 10.64 36.47 10.84L36.47 10.84L36.47 10.84Q36.88 11.26 37.20 11.69L37.20 11.69L37.20 11.69Q37.53 12.12 37.53 12.60L37.53 12.60L37.53 12.60Q37.53 13.54 36.79 14.05L36.79 14.05L36.79 14.05Q36.05 14.56 34.73 14.56L34.73 14.56L34.73 14.56Q33.40 14.56 32.75 14.04L32.75 14.04L32.75 14.04Q32.09 13.51 32.09 12.85L32.09 12.85L32.09 12.85Q32.09 12.18 32.42 11.63L32.42 11.63L32.42 11.63Q32.75 11.09 33.12 11.09L33.12 11.09L33.12 11.09Q33.35 11.09 33.45 11.25L33.45 11.25L33.45 11.25Q33.54 11.41 33.81 12.18L33.81 12.18L33.81 12.18Q33.91 12.46 34.13 12.71L34.13 12.71L34.13 12.71Q34.65 13.29 35.77 13.29L35.77 13.29L35.77 13.29Q35.60 12.75 35.23 12.37L35.23 12.37L35.23 12.37Q34.86 11.98 34.50 11.62L34.50 11.62L34.50 11.62Q34.13 11.26 33.85 10.84L33.85 10.84L33.85 10.84Q33.57 10.43 33.57 9.87L33.57 9.87L33.57 9.87Q33.57 8.86 34.33 8.23L34.33 8.23L34.33 8.23Q35.04 7.67 35.98 7.67ZM35.92 10.26L35.92 10.26L35.92 10.26Q36.48 9.66 36.48 9.30L36.48 9.30L36.48 9.30Q36.48 9.13 36.37 9.00L36.37 9.00L36.37 9.00Q36.25 8.86 36.02 8.86L36.02 8.86L36.02 8.86Q35.80 8.86 35.59 8.92L35.59 8.92L35.59 8.92Q35.39 8.97 35.27 9.00L35.27 9.00L35.27 9.00Q35.27 9.53 35.92 10.26Z"></path></g><!----><g data-v-423bf9ae="" id="31a2892c-2c13-4128-9934-98d7af5e0b7c" transform="matrix(2.8125,0,0,2.8125,0,0)" stroke="none" fill="black"><path d="M16 32c8.837 0 16-7.163 16-16S24.837 0 16 0 0 7.163 0 16s7.163 16 16 16zM14.817 6.421h2v8.886h8.887v2H14.817V6.421zm-5.959.437h2v14.283h14.283v2H8.858V6.858z"></path></g><!----></svg>